<svg id="Layer_1" data-name="Layer 1" xmlns="http://www.w3.org/2000/svg" viewBox="0 0 504.92 199.38"><defs><style>.cls-1{fill:#3b3f56;}</style></defs><title>Vector Smart Object</title><path class="cls-1" d="M88.34,23.44,71.08,36.76c-6-9-13.5-14.25-23.63-14.25-8.25,0-15.38,3.75-15.38,12,0,7.13,5.44,10.13,14.44,14.25L60.58,55c19.51,8.63,30.57,18.57,30.57,36.2,0,23.07-18.75,37.14-43.32,37.14C26.45,128.29,9.19,117.41,0,100.9L17.44,87.78c6.75,9.38,15.57,18,30.38,18,10.88,0,17.63-5.06,17.63-13.69,0-8.06-6-10.88-15.75-15.38l-13.32-6c-17.63-8.07-30-18.19-30-35.64C6.38,13.69,24.19,0,47.45,0,67.15,0,81,9.94,88.34,23.44" transform="translate(0 0)"/><path class="cls-1" d="M223.85,109.91H173.21L166.27,126h-27.2L194.4,0h8.44L258,126H230.79ZM198.53,47.26,182,89.09h33Z" transform="translate(0 0)"/><rect class="cls-1" x="317.81" y="2.25" width="25.32" height="123.79"/><path class="cls-1" d="M431,59.08a30.08,30.08,0,0,1-9.19-22.32c0-20.44,16.32-34.51,39.2-34.51h43.89V126H449.78c-24,0-40.7-15-40.7-36.39,0-15.19,8.44-25.69,21.94-30.57M463.09,24C452.59,24,447,29.45,447,38.07c0,8.44,5.63,14.25,16.13,14.25h17.44V24Zm-11.44,80.27h28.88V73.15H451.65c-11.07,0-17.63,6-17.63,15.57,0,9.75,6.56,15.57,17.63,15.57" transform="translate(0 0)"/><rect class="cls-1" x="31.23" y="175.71" width="4.76" height="23.25"/><polygon class="cls-1" points="68.15 175.71 68.15 199.38 66.56 199.38 53.11 185.01 53.11 198.96 48.35 198.96 48.35 175.29 49.9 175.29 63.39 189.59 63.39 175.71 68.15 175.71"/><polygon class="cls-1" points="97.28 180.01 89.81 180.01 89.81 198.96 85.06 198.96 85.06 180.01 77.63 180.01 77.63 175.71 97.28 175.71 97.28 180.01"/><rect class="cls-1" x="106.05" y="175.71" width="4.75" height="23.25"/><polygon class="cls-1" points="145.93 175.29 145.93 198.96 141.17 198.96 141.17 186.56 135.32 193.89 133.77 193.89 127.93 186.56 127.93 198.96 123.17 198.96 123.17 175.29 124.72 175.29 134.55 187.86 144.38 175.29 145.93 175.29"/><path class="cls-1" d="M170.62,195.93h-9.51l-1.3,3H154.7l10.39-23.67h1.59L177,199h-5.11Zm-4.75-11.77-3.1,7.85H169Z" transform="translate(0 0)"/><polygon class="cls-1" points="202.07 180.01 194.61 180.01 194.61 198.96 189.85 198.96 189.85 180.01 182.42 180.01 182.42 175.71 202.07 175.71 202.07 180.01"/><polygon class="cls-1" points="227.9 180.01 217.01 180.01 217.01 184.73 225.01 184.73 225.01 188.78 217.01 188.78 217.01 194.66 228.32 194.66 228.32 198.96 212.25 198.96 212.25 175.71 227.9 175.71 227.9 180.01"/><path class="cls-1" d="M285.84,181.06l-3.59,2.54a7.57,7.57,0,0,0-6.66-3.91,7.64,7.64,0,0,0,0,15.29,7.57,7.57,0,0,0,6.66-3.91l3.59,2.53a11.53,11.53,0,0,1-10.29,5.78,12.05,12.05,0,1,1,0-24.09,11.55,11.55,0,0,1,10.25,5.78" transform="translate(0 0)"/><path class="cls-1" d="M318,187.33a12.37,12.37,0,1,1-12.4-12,12.12,12.12,0,0,1,12.4,12m-19.83,0a7.47,7.47,0,1,0,7.47-7.64,7.26,7.26,0,0,0-7.47,7.64" transform="translate(0 0)"/><path class="cls-1" d="M342.66,179.69l-3.24,2.5a5.19,5.19,0,0,0-4.44-2.68c-1.55,0-2.89.7-2.89,2.25,0,1.34,1,1.9,2.71,2.68l2.64,1.16c3.66,1.62,5.74,3.49,5.74,6.8,0,4.33-3.52,7-8.14,7a10,10,0,0,1-9-5.14l3.28-2.47c1.27,1.76,2.92,3.38,5.71,3.38,2,0,3.31-1,3.31-2.57s-1.13-2-3-2.89l-2.5-1.13c-3.31-1.52-5.64-3.42-5.64-6.69,0-4,3.35-6.59,7.71-6.59a8.38,8.38,0,0,1,7.68,4.4" transform="translate(0 0)"/><polygon class="cls-1" points="377.18 175.29 377.18 198.96 372.42 198.96 372.42 186.56 366.57 193.89 365.02 193.89 359.18 186.56 359.18 198.96 354.42 198.96 354.42 175.29 355.97 175.29 365.8 187.86 375.63 175.29 377.18 175.29"/><polygon class="cls-1" points="405.21 180.01 394.33 180.01 394.33 184.73 402.33 184.73 402.33 188.78 394.33 188.78 394.33 194.66 405.64 194.66 405.64 198.96 389.57 198.96 389.57 175.71 405.21 175.71 405.21 180.01"/><polygon class="cls-1" points="432.87 180.01 425.4 180.01 425.4 198.96 420.64 198.96 420.64 180.01 413.21 180.01 413.21 175.71 432.87 175.71 432.87 180.01"/><rect class="cls-1" x="442.34" y="175.71" width="4.76" height="23.25"/><path class="cls-1" d="M480.07,181.06l-3.59,2.54a7.57,7.57,0,0,0-6.66-3.91,7.64,7.64,0,0,0,0,15.29,7.57,7.57,0,0,0,6.66-3.91l3.59,2.53a11.53,11.53,0,0,1-10.29,5.78,12.05,12.05,0,1,1,0-24.09,11.55,11.55,0,0,1,10.25,5.78" transform="translate(0 0)"/></svg>