<svg xmlns="http://www.w3.org/2000/svg" width="138.857" height="22" viewBox="0 0 138.857 22">
  <g id="그룹_19" data-name="그룹 19" transform="translate(-206 -69)">
    <path id="패스_27" data-name="패스 27" d="M612.224,58.341l-5.525,2.9a.993.993,0,0,1-1.44-1.047l1.055-6.152a.993.993,0,0,0-.286-.879l-4.47-4.357a.992.992,0,0,1,.55-1.693l6.177-.9a.993.993,0,0,0,.747-.543l2.763-5.6a.993.993,0,0,1,1.78,0l2.763,5.6a.993.993,0,0,0,.747.543l6.177.9a.992.992,0,0,1,.55,1.693l-4.47,4.357a.993.993,0,0,0-.286.879l1.124,6.551a.793.793,0,0,1-1.151.836l-5.883-3.093A.993.993,0,0,0,612.224,58.341Z" transform="translate(-337.258 29.473)" fill="#ebb2c0"/>
    <path id="패스_28" data-name="패스 28" d="M612.224,58.341l-5.525,2.9a.993.993,0,0,1-1.44-1.047l1.055-6.152a.993.993,0,0,0-.286-.879l-4.47-4.357a.992.992,0,0,1,.55-1.693l6.177-.9a.993.993,0,0,0,.747-.543l2.763-5.6a.993.993,0,0,1,1.78,0l2.763,5.6a.993.993,0,0,0,.747.543l6.177.9a.992.992,0,0,1,.55,1.693l-4.47,4.357a.993.993,0,0,0-.286.879l1.124,6.551a.793.793,0,0,1-1.151.836l-5.883-3.093A.993.993,0,0,0,612.224,58.341Z" transform="translate(-366.258 29.473)" fill="#ebb2c0"/>
    <path id="패스_29" data-name="패스 29" d="M612.224,58.341l-5.525,2.9a.993.993,0,0,1-1.44-1.047l1.055-6.152a.993.993,0,0,0-.286-.879l-4.47-4.357a.992.992,0,0,1,.55-1.693l6.177-.9a.993.993,0,0,0,.747-.543l2.763-5.6a.993.993,0,0,1,1.78,0l2.763,5.6a.993.993,0,0,0,.747.543l6.177.9a.992.992,0,0,1,.55,1.693l-4.47,4.357a.993.993,0,0,0-.286.879l1.124,6.551a.793.793,0,0,1-1.151.836l-5.883-3.093A.993.993,0,0,0,612.224,58.341Z" transform="translate(-395.258 29.473)" fill="#ebb2c0"/>
    <path id="패스_30" data-name="패스 30" d="M612.224,58.341l-5.525,2.9a.993.993,0,0,1-1.44-1.047l1.055-6.152a.993.993,0,0,0-.286-.879l-4.47-4.357a.992.992,0,0,1,.55-1.693l6.177-.9a.993.993,0,0,0,.747-.543l2.763-5.6a.993.993,0,0,1,1.78,0l2.763,5.6a.993.993,0,0,0,.747.543l6.177.9a.992.992,0,0,1,.55,1.693l-4.47,4.357a.993.993,0,0,0-.286.879l1.124,6.551a.793.793,0,0,1-1.151.836l-5.883-3.093A.993.993,0,0,0,612.224,58.341Z" transform="translate(-308.258 29.473)" fill="#ebb2c0"/>
    <path id="패스_31" data-name="패스 31" d="M612.224,58.341l-5.525,2.9a.993.993,0,0,1-1.44-1.047l1.055-6.152a.993.993,0,0,0-.286-.879l-4.47-4.357a.992.992,0,0,1,.55-1.693l6.177-.9a.993.993,0,0,0,.747-.543l2.763-5.6a.993.993,0,0,1,1.78,0l2.763,5.6a.993.993,0,0,0,.747.543l6.177.9a.992.992,0,0,1,.55,1.693l-4.47,4.357a.993.993,0,0,0-.286.879l1.124,6.551a.793.793,0,0,1-1.151.836l-5.883-3.093A.993.993,0,0,0,612.224,58.341Z" transform="translate(-279.258 29.473)" fill="#ebb2c0"/>
  </g>
</svg>
